<svg width="384" height="87" viewBox="0 0 384 87" fill="none" xmlns="http://www.w3.org/2000/svg">
<path d="M15.52 77L15.504 70.28L12.208 75.816H11.04L7.76 70.424V77H5.328V65.8H7.472L11.664 72.76L15.792 65.8H17.92L17.952 77H15.52ZM28.9773 68.392L25.0893 77.528C24.6946 78.52 24.2039 79.2187 23.6173 79.624C23.0413 80.0293 22.3426 80.232 21.5213 80.232C21.0733 80.232 20.6306 80.1627 20.1933 80.024C19.7559 79.8853 19.3986 79.6933 19.1212 79.448L20.0333 77.672C20.2253 77.8427 20.4439 77.976 20.6893 78.072C20.9453 78.168 21.1959 78.216 21.4413 78.216C21.7826 78.216 22.0599 78.1307 22.2733 77.96C22.4866 77.8 22.6786 77.528 22.8493 77.144L22.8813 77.064L19.1532 68.392H21.7293L24.1453 74.232L26.5773 68.392H28.9773ZM37.295 67.88V70.84H42.479V72.92H37.295V77H34.703V65.8H43.167V67.88H37.295ZM44.5895 68.392H47.0855V77H44.5895V68.392ZM45.8375 67.192C45.3788 67.192 45.0055 67.0587 44.7175 66.792C44.4295 66.5253 44.2855 66.1947 44.2855 65.8C44.2855 65.4053 44.4295 65.0747 44.7175 64.808C45.0055 64.5413 45.3788 64.408 45.8375 64.408C46.2962 64.408 46.6695 64.536 46.9575 64.792C47.2455 65.048 47.3895 65.368 47.3895 65.752C47.3895 66.168 47.2455 66.5147 46.9575 66.792C46.6695 67.0587 46.2962 67.192 45.8375 67.192ZM49.402 65.128H51.898V77H49.402V65.128ZM62.6465 72.728C62.6465 72.76 62.6305 72.984 62.5985 73.4H56.0865C56.2038 73.9333 56.4812 74.3547 56.9185 74.664C57.3558 74.9733 57.8998 75.128 58.5505 75.128C58.9985 75.128 59.3932 75.064 59.7345 74.936C60.0865 74.7973 60.4118 74.584 60.7105 74.296L62.0385 75.736C61.2278 76.664 60.0438 77.128 58.4865 77.128C57.5158 77.128 56.6572 76.9413 55.9105 76.568C55.1638 76.184 54.5878 75.656 54.1825 74.984C53.7772 74.312 53.5745 73.5493 53.5745 72.696C53.5745 71.8533 53.7718 71.096 54.1665 70.424C54.5718 69.7413 55.1212 69.2133 55.8145 68.84C56.5185 68.456 57.3025 68.264 58.1665 68.264C59.0092 68.264 59.7718 68.4453 60.4545 68.808C61.1372 69.1707 61.6705 69.6933 62.0545 70.376C62.4492 71.048 62.6465 71.832 62.6465 72.728ZM58.1825 70.152C57.6172 70.152 57.1425 70.312 56.7585 70.632C56.3745 70.952 56.1398 71.3893 56.0545 71.944H60.2945C60.2092 71.4 59.9745 70.968 59.5905 70.648C59.2065 70.3173 58.7372 70.152 58.1825 70.152ZM67.2043 77.128C66.4896 77.128 65.7909 77.0427 65.1083 76.872C64.4256 76.6907 63.8816 76.4667 63.4763 76.2L64.3083 74.408C64.6923 74.6533 65.1563 74.856 65.7003 75.016C66.2443 75.1653 66.7776 75.24 67.3003 75.24C68.3563 75.24 68.8843 74.9787 68.8843 74.456C68.8843 74.2107 68.7403 74.0347 68.4523 73.928C68.1643 73.8213 67.7216 73.7307 67.1243 73.656C66.4203 73.5493 65.8389 73.4267 65.3803 73.288C64.9216 73.1493 64.5216 72.904 64.1803 72.552C63.8496 72.2 63.6842 71.6987 63.6842 71.048C63.6842 70.504 63.8389 70.024 64.1483 69.608C64.4683 69.1813 64.9269 68.8507 65.5243 68.616C66.1323 68.3813 66.8469 68.264 67.6683 68.264C68.2763 68.264 68.8789 68.3333 69.4763 68.472C70.0843 68.6 70.5856 68.7813 70.9803 69.016L70.1483 70.792C69.3909 70.3653 68.5643 70.152 67.6683 70.152C67.1349 70.152 66.7349 70.2267 66.4683 70.376C66.2016 70.5253 66.0683 70.7173 66.0683 70.952C66.0683 71.2187 66.2123 71.4053 66.5003 71.512C66.7883 71.6187 67.2469 71.72 67.8763 71.816C68.5803 71.9333 69.1563 72.0613 69.6043 72.2C70.0523 72.328 70.4416 72.568 70.7723 72.92C71.1029 73.272 71.2683 73.7627 71.2683 74.392C71.2683 74.9253 71.1083 75.4 70.7883 75.816C70.4683 76.232 69.9989 76.5573 69.3803 76.792C68.7723 77.016 68.0469 77.128 67.2043 77.128ZM85.4708 63.528H87.6948L82.4148 78.6H80.1908L85.4708 63.528ZM107.567 77L107.551 70.28L104.255 75.816H103.087L99.8069 70.424V77H97.3749V65.8H99.5189L103.711 72.76L107.839 65.8H109.967L109.999 77H107.567ZM121.024 68.392L117.136 77.528C116.741 78.52 116.251 79.2187 115.664 79.624C115.088 80.0293 114.389 80.232 113.568 80.232C113.12 80.232 112.677 80.1627 112.24 80.024C111.803 79.8853 111.445 79.6933 111.168 79.448L112.08 77.672C112.272 77.8427 112.491 77.976 112.736 78.072C112.992 78.168 113.243 78.216 113.488 78.216C113.829 78.216 114.107 78.1307 114.32 77.96C114.533 77.8 114.725 77.528 114.896 77.144L114.928 77.064L111.2 68.392H113.776L116.192 74.232L118.624 68.392H121.024ZM129.342 67.88V70.84H134.526V72.92H129.342V77H126.75V65.8H135.214V67.88H129.342ZM140.67 77.128C139.763 77.128 138.947 76.9413 138.222 76.568C137.507 76.184 136.947 75.656 136.542 74.984C136.137 74.312 135.934 73.5493 135.934 72.696C135.934 71.8427 136.137 71.08 136.542 70.408C136.947 69.736 137.507 69.2133 138.222 68.84C138.947 68.456 139.763 68.264 140.67 68.264C141.577 68.264 142.387 68.456 143.102 68.84C143.817 69.2133 144.377 69.736 144.782 70.408C145.187 71.08 145.39 71.8427 145.39 72.696C145.39 73.5493 145.187 74.312 144.782 74.984C144.377 75.656 143.817 76.184 143.102 76.568C142.387 76.9413 141.577 77.128 140.67 77.128ZM140.67 75.08C141.31 75.08 141.833 74.8667 142.238 74.44C142.654 74.0027 142.862 73.4213 142.862 72.696C142.862 71.9707 142.654 71.3947 142.238 70.968C141.833 70.5307 141.31 70.312 140.67 70.312C140.03 70.312 139.502 70.5307 139.086 70.968C138.67 71.3947 138.462 71.9707 138.462 72.696C138.462 73.4213 138.67 74.0027 139.086 74.44C139.502 74.8667 140.03 75.08 140.67 75.08ZM147.058 65.128H149.554V77H147.058V65.128ZM160.639 65.128V77H158.255V76.008C157.636 76.7547 156.74 77.128 155.567 77.128C154.756 77.128 154.02 76.9467 153.359 76.584C152.708 76.2213 152.196 75.704 151.823 75.032C151.449 74.36 151.263 73.5813 151.263 72.696C151.263 71.8107 151.449 71.032 151.823 70.36C152.196 69.688 152.708 69.1707 153.359 68.808C154.02 68.4453 154.756 68.264 155.567 68.264C156.665 68.264 157.524 68.6107 158.143 69.304V65.128H160.639ZM155.999 75.08C156.628 75.08 157.151 74.8667 157.567 74.44C157.983 74.0027 158.191 73.4213 158.191 72.696C158.191 71.9707 157.983 71.3947 157.567 70.968C157.151 70.5307 156.628 70.312 155.999 70.312C155.359 70.312 154.831 70.5307 154.415 70.968C153.999 71.3947 153.791 71.9707 153.791 72.696C153.791 73.4213 153.999 74.0027 154.415 74.44C154.831 74.8667 155.359 75.08 155.999 75.08ZM171.381 72.728C171.381 72.76 171.365 72.984 171.333 73.4H164.821C164.938 73.9333 165.216 74.3547 165.653 74.664C166.09 74.9733 166.634 75.128 167.285 75.128C167.733 75.128 168.128 75.064 168.469 74.936C168.821 74.7973 169.146 74.584 169.445 74.296L170.773 75.736C169.962 76.664 168.778 77.128 167.221 77.128C166.25 77.128 165.392 76.9413 164.645 76.568C163.898 76.184 163.322 75.656 162.917 74.984C162.512 74.312 162.309 73.5493 162.309 72.696C162.309 71.8533 162.506 71.096 162.901 70.424C163.306 69.7413 163.856 69.2133 164.549 68.84C165.253 68.456 166.037 68.264 166.901 68.264C167.744 68.264 168.506 68.4453 169.189 68.808C169.872 69.1707 170.405 69.6933 170.789 70.376C171.184 71.048 171.381 71.832 171.381 72.728ZM166.917 70.152C166.352 70.152 165.877 70.312 165.493 70.632C165.109 70.952 164.874 71.3893 164.789 71.944H169.029C168.944 71.4 168.709 70.968 168.325 70.648C167.941 70.3173 167.472 70.152 166.917 70.152ZM175.427 69.528C175.725 69.112 176.125 68.7973 176.627 68.584C177.139 68.3707 177.725 68.264 178.387 68.264V70.568C178.109 70.5467 177.923 70.536 177.827 70.536C177.112 70.536 176.552 70.7387 176.147 71.144C175.741 71.5387 175.539 72.136 175.539 72.936V77H173.043V68.392H175.427V69.528ZM192.596 63.528H194.82L189.54 78.6H187.316L192.596 63.528ZM208.18 77.192C207.295 77.192 206.436 77.0747 205.604 76.84C204.783 76.5947 204.121 76.28 203.62 75.896L204.5 73.944C204.98 74.296 205.551 74.5787 206.212 74.792C206.873 75.0053 207.535 75.112 208.196 75.112C208.932 75.112 209.476 75.0053 209.828 74.792C210.18 74.568 210.356 74.2747 210.356 73.912C210.356 73.6453 210.249 73.4267 210.036 73.256C209.833 73.0747 209.567 72.9307 209.236 72.824C208.916 72.7173 208.479 72.6 207.924 72.472C207.071 72.2693 206.372 72.0667 205.828 71.864C205.284 71.6613 204.815 71.336 204.42 70.888C204.036 70.44 203.844 69.8427 203.844 69.096C203.844 68.4453 204.02 67.8587 204.372 67.336C204.724 66.8027 205.252 66.3813 205.956 66.072C206.671 65.7627 207.54 65.608 208.564 65.608C209.279 65.608 209.977 65.6933 210.66 65.864C211.343 66.0347 211.94 66.28 212.452 66.6L211.652 68.568C210.617 67.9813 209.583 67.688 208.548 67.688C207.823 67.688 207.284 67.8053 206.932 68.04C206.591 68.2747 206.42 68.584 206.42 68.968C206.42 69.352 206.617 69.64 207.012 69.832C207.417 70.0133 208.031 70.1947 208.852 70.376C209.705 70.5787 210.404 70.7813 210.948 70.984C211.492 71.1867 211.956 71.5067 212.34 71.944C212.735 72.3813 212.932 72.9733 212.932 73.72C212.932 74.36 212.751 74.9467 212.388 75.48C212.036 76.0027 211.503 76.4187 210.788 76.728C210.073 77.0373 209.204 77.192 208.18 77.192ZM223.199 68.392V77H220.831V75.976C220.5 76.3493 220.106 76.6373 219.647 76.84C219.188 77.032 218.692 77.128 218.159 77.128C217.028 77.128 216.132 76.8027 215.471 76.152C214.81 75.5013 214.479 74.536 214.479 73.256V68.392H216.975V72.888C216.975 74.2747 217.556 74.968 218.719 74.968C219.316 74.968 219.796 74.776 220.159 74.392C220.522 73.9973 220.703 73.416 220.703 72.648V68.392H223.199ZM230.599 68.264C231.399 68.264 232.125 68.4507 232.775 68.824C233.437 69.1867 233.954 69.704 234.327 70.376C234.701 71.0373 234.887 71.8107 234.887 72.696C234.887 73.5813 234.701 74.36 234.327 75.032C233.954 75.6933 233.437 76.2107 232.775 76.584C232.125 76.9467 231.399 77.128 230.599 77.128C229.415 77.128 228.514 76.7547 227.895 76.008V77H225.511V65.128H228.007V69.304C228.637 68.6107 229.501 68.264 230.599 68.264ZM230.167 75.08C230.807 75.08 231.33 74.8667 231.735 74.44C232.151 74.0027 232.359 73.4213 232.359 72.696C232.359 71.9707 232.151 71.3947 231.735 70.968C231.33 70.5307 230.807 70.312 230.167 70.312C229.527 70.312 228.999 70.5307 228.583 70.968C228.178 71.3947 227.975 71.9707 227.975 72.696C227.975 73.4213 228.178 74.0027 228.583 74.44C228.999 74.8667 229.527 75.08 230.167 75.08ZM243.858 67.88V70.84H249.042V72.92H243.858V77H241.266V65.8H249.73V67.88H243.858ZM255.186 77.128C254.279 77.128 253.463 76.9413 252.738 76.568C252.023 76.184 251.463 75.656 251.058 74.984C250.652 74.312 250.45 73.5493 250.45 72.696C250.45 71.8427 250.652 71.08 251.058 70.408C251.463 69.736 252.023 69.2133 252.738 68.84C253.463 68.456 254.279 68.264 255.186 68.264C256.092 68.264 256.903 68.456 257.618 68.84C258.332 69.2133 258.892 69.736 259.298 70.408C259.703 71.08 259.906 71.8427 259.906 72.696C259.906 73.5493 259.703 74.312 259.298 74.984C258.892 75.656 258.332 76.184 257.618 76.568C256.903 76.9413 256.092 77.128 255.186 77.128ZM255.186 75.08C255.826 75.08 256.348 74.8667 256.754 74.44C257.17 74.0027 257.378 73.4213 257.378 72.696C257.378 71.9707 257.17 71.3947 256.754 70.968C256.348 70.5307 255.826 70.312 255.186 70.312C254.546 70.312 254.018 70.5307 253.602 70.968C253.186 71.3947 252.978 71.9707 252.978 72.696C252.978 73.4213 253.186 74.0027 253.602 74.44C254.018 74.8667 254.546 75.08 255.186 75.08ZM261.574 65.128H264.07V77H261.574V65.128ZM275.154 65.128V77H272.77V76.008C272.152 76.7547 271.256 77.128 270.082 77.128C269.272 77.128 268.536 76.9467 267.874 76.584C267.224 76.2213 266.712 75.704 266.338 75.032C265.965 74.36 265.778 73.5813 265.778 72.696C265.778 71.8107 265.965 71.032 266.338 70.36C266.712 69.688 267.224 69.1707 267.874 68.808C268.536 68.4453 269.272 68.264 270.082 68.264C271.181 68.264 272.04 68.6107 272.658 69.304V65.128H275.154ZM270.514 75.08C271.144 75.08 271.666 74.8667 272.082 74.44C272.498 74.0027 272.706 73.4213 272.706 72.696C272.706 71.9707 272.498 71.3947 272.082 70.968C271.666 70.5307 271.144 70.312 270.514 70.312C269.874 70.312 269.346 70.5307 268.93 70.968C268.514 71.3947 268.306 71.9707 268.306 72.696C268.306 73.4213 268.514 74.0027 268.93 74.44C269.346 74.8667 269.874 75.08 270.514 75.08ZM285.897 72.728C285.897 72.76 285.881 72.984 285.849 73.4H279.337C279.454 73.9333 279.731 74.3547 280.169 74.664C280.606 74.9733 281.15 75.128 281.801 75.128C282.249 75.128 282.643 75.064 282.985 74.936C283.337 74.7973 283.662 74.584 283.961 74.296L285.289 75.736C284.478 76.664 283.294 77.128 281.737 77.128C280.766 77.128 279.907 76.9413 279.161 76.568C278.414 76.184 277.838 75.656 277.433 74.984C277.027 74.312 276.825 73.5493 276.825 72.696C276.825 71.8533 277.022 71.096 277.417 70.424C277.822 69.7413 278.371 69.2133 279.065 68.84C279.769 68.456 280.553 68.264 281.417 68.264C282.259 68.264 283.022 68.4453 283.705 68.808C284.387 69.1707 284.921 69.6933 285.305 70.376C285.699 71.048 285.897 71.832 285.897 72.728ZM281.433 70.152C280.867 70.152 280.393 70.312 280.009 70.632C279.625 70.952 279.39 71.3893 279.305 71.944H283.545C283.459 71.4 283.225 70.968 282.841 70.648C282.457 70.3173 281.987 70.152 281.433 70.152ZM289.942 69.528C290.241 69.112 290.641 68.7973 291.142 68.584C291.654 68.3707 292.241 68.264 292.902 68.264V70.568C292.625 70.5467 292.438 70.536 292.342 70.536C291.628 70.536 291.068 70.7387 290.662 71.144C290.257 71.5387 290.054 72.136 290.054 72.936V77H287.558V68.392H289.942V69.528ZM307.111 63.528H309.335L304.055 78.6H301.831L307.111 63.528Z" fill="#4F1F5A"/>
<path d="M327.272 72.728C327.272 72.76 327.256 72.984 327.224 73.4H320.712C320.829 73.9333 321.106 74.3547 321.544 74.664C321.981 74.9733 322.525 75.128 323.176 75.128C323.624 75.128 324.018 75.064 324.36 74.936C324.712 74.7973 325.037 74.584 325.336 74.296L326.664 75.736C325.853 76.664 324.669 77.128 323.112 77.128C322.141 77.128 321.282 76.9413 320.536 76.568C319.789 76.184 319.213 75.656 318.808 74.984C318.402 74.312 318.2 73.5493 318.2 72.696C318.2 71.8533 318.397 71.096 318.792 70.424C319.197 69.7413 319.746 69.2133 320.44 68.84C321.144 68.456 321.928 68.264 322.792 68.264C323.634 68.264 324.397 68.4453 325.08 68.808C325.762 69.1707 326.296 69.6933 326.68 70.376C327.074 71.048 327.272 71.832 327.272 72.728ZM322.808 70.152C322.242 70.152 321.768 70.312 321.384 70.632C321 70.952 320.765 71.3893 320.68 71.944H324.92C324.834 71.4 324.6 70.968 324.216 70.648C323.832 70.3173 323.362 70.152 322.808 70.152ZM334.485 76.584C334.24 76.7653 333.936 76.904 333.573 77C333.221 77.0853 332.848 77.128 332.453 77.128C331.429 77.128 330.635 76.8667 330.069 76.344C329.515 75.8213 329.237 75.0533 329.237 74.04V70.504H327.909V68.584H329.237V66.488H331.733V68.584H333.877V70.504H331.733V74.008C331.733 74.3707 331.824 74.6533 332.005 74.856C332.197 75.048 332.464 75.144 332.805 75.144C333.2 75.144 333.536 75.0373 333.813 74.824L334.485 76.584ZM339.781 77.128C338.863 77.128 338.037 76.9413 337.301 76.568C336.575 76.184 336.005 75.656 335.589 74.984C335.183 74.312 334.981 73.5493 334.981 72.696C334.981 71.8427 335.183 71.08 335.589 70.408C336.005 69.736 336.575 69.2133 337.301 68.84C338.037 68.456 338.863 68.264 339.781 68.264C340.687 68.264 341.477 68.456 342.149 68.84C342.831 69.2133 343.327 69.752 343.637 70.456L341.701 71.496C341.253 70.7067 340.607 70.312 339.765 70.312C339.114 70.312 338.575 70.5253 338.149 70.952C337.722 71.3787 337.509 71.96 337.509 72.696C337.509 73.432 337.722 74.0133 338.149 74.44C338.575 74.8667 339.114 75.08 339.765 75.08C340.618 75.08 341.263 74.6853 341.701 73.896L343.637 74.952C343.327 75.6347 342.831 76.168 342.149 76.552C341.477 76.936 340.687 77.128 339.781 77.128Z" fill="#4F1F5A" fill-opacity="0.55"/>
<rect x="168" y="3" width="147" height="35" rx="10" fill="#F8D8FF"/>
<path d="M213.19 17.356C214.124 17.356 214.875 17.636 215.444 18.196C216.023 18.756 216.312 19.5867 216.312 20.688V25H214.128V21.024C214.128 20.4267 213.998 19.9833 213.736 19.694C213.475 19.3953 213.097 19.246 212.602 19.246C212.052 19.246 211.613 19.4187 211.286 19.764C210.96 20.1 210.796 20.604 210.796 21.276V25H208.612V17.468H210.698V18.35C210.988 18.0327 211.347 17.79 211.776 17.622C212.206 17.4447 212.677 17.356 213.19 17.356ZM225.752 21.262C225.752 21.29 225.738 21.486 225.71 21.85H220.012C220.115 22.3167 220.358 22.6853 220.74 22.956C221.123 23.2267 221.599 23.362 222.168 23.362C222.56 23.362 222.906 23.306 223.204 23.194C223.512 23.0727 223.797 22.886 224.058 22.634L225.22 23.894C224.511 24.706 223.475 25.112 222.112 25.112C221.263 25.112 220.512 24.9487 219.858 24.622C219.205 24.286 218.701 23.824 218.346 23.236C217.992 22.648 217.814 21.9807 217.814 21.234C217.814 20.4967 217.987 19.834 218.332 19.246C218.687 18.6487 219.168 18.1867 219.774 17.86C220.39 17.524 221.076 17.356 221.832 17.356C222.57 17.356 223.237 17.5147 223.834 17.832C224.432 18.1493 224.898 18.6067 225.234 19.204C225.58 19.792 225.752 20.478 225.752 21.262ZM221.846 19.008C221.352 19.008 220.936 19.148 220.6 19.428C220.264 19.708 220.059 20.0907 219.984 20.576H223.694C223.62 20.1 223.414 19.722 223.078 19.442C222.742 19.1527 222.332 19.008 221.846 19.008ZM239.166 17.468L236.436 25H234.336L232.642 20.324L230.892 25H228.792L226.076 17.468H228.134L229.912 22.564L231.76 17.468H233.608L235.4 22.564L237.234 17.468H239.166ZM246.54 17.636H248.472V19.316H246.596V25H244.412V19.316H243.25V17.636H244.412V17.3C244.412 16.4413 244.664 15.76 245.168 15.256C245.681 14.752 246.4 14.5 247.324 14.5C247.65 14.5 247.958 14.5373 248.248 14.612C248.546 14.6773 248.794 14.7753 248.99 14.906L248.416 16.488C248.164 16.3107 247.87 16.222 247.534 16.222C246.871 16.222 246.54 16.586 246.54 17.314V17.636ZM253.048 25.112C252.255 25.112 251.541 24.9487 250.906 24.622C250.281 24.286 249.791 23.824 249.436 23.236C249.081 22.648 248.904 21.9807 248.904 21.234C248.904 20.4873 249.081 19.82 249.436 19.232C249.791 18.644 250.281 18.1867 250.906 17.86C251.541 17.524 252.255 17.356 253.048 17.356C253.841 17.356 254.551 17.524 255.176 17.86C255.801 18.1867 256.291 18.644 256.646 19.232C257.001 19.82 257.178 20.4873 257.178 21.234C257.178 21.9807 257.001 22.648 256.646 23.236C256.291 23.824 255.801 24.286 255.176 24.622C254.551 24.9487 253.841 25.112 253.048 25.112ZM253.048 23.32C253.608 23.32 254.065 23.1333 254.42 22.76C254.784 22.3773 254.966 21.8687 254.966 21.234C254.966 20.5993 254.784 20.0953 254.42 19.722C254.065 19.3393 253.608 19.148 253.048 19.148C252.488 19.148 252.026 19.3393 251.662 19.722C251.298 20.0953 251.116 20.5993 251.116 21.234C251.116 21.8687 251.298 22.3773 251.662 22.76C252.026 23.1333 252.488 23.32 253.048 23.32ZM258.638 14.612H260.822V25H258.638V14.612ZM270.521 14.612V25H268.435V24.132C267.893 24.7853 267.109 25.112 266.083 25.112C265.373 25.112 264.729 24.9533 264.151 24.636C263.581 24.3187 263.133 23.866 262.807 23.278C262.48 22.69 262.317 22.0087 262.317 21.234C262.317 20.4593 262.48 19.778 262.807 19.19C263.133 18.602 263.581 18.1493 264.151 17.832C264.729 17.5147 265.373 17.356 266.083 17.356C267.044 17.356 267.795 17.6593 268.337 18.266V14.612H270.521ZM266.461 23.32C267.011 23.32 267.469 23.1333 267.833 22.76C268.197 22.3773 268.379 21.8687 268.379 21.234C268.379 20.5993 268.197 20.0953 267.833 19.722C267.469 19.3393 267.011 19.148 266.461 19.148C265.901 19.148 265.439 19.3393 265.075 19.722C264.711 20.0953 264.529 20.5993 264.529 21.234C264.529 21.8687 264.711 22.3773 265.075 22.76C265.439 23.1333 265.901 23.32 266.461 23.32ZM279.92 21.262C279.92 21.29 279.906 21.486 279.878 21.85H274.18C274.283 22.3167 274.526 22.6853 274.908 22.956C275.291 23.2267 275.767 23.362 276.336 23.362C276.728 23.362 277.074 23.306 277.372 23.194C277.68 23.0727 277.965 22.886 278.226 22.634L279.388 23.894C278.679 24.706 277.643 25.112 276.28 25.112C275.431 25.112 274.68 24.9487 274.026 24.622C273.373 24.286 272.869 23.824 272.514 23.236C272.16 22.648 271.982 21.9807 271.982 21.234C271.982 20.4967 272.155 19.834 272.5 19.246C272.855 18.6487 273.336 18.1867 273.942 17.86C274.558 17.524 275.244 17.356 276 17.356C276.738 17.356 277.405 17.5147 278.002 17.832C278.6 18.1493 279.066 18.6067 279.402 19.204C279.748 19.792 279.92 20.478 279.92 21.262ZM276.014 19.008C275.52 19.008 275.104 19.148 274.768 19.428C274.432 19.708 274.227 20.0907 274.152 20.576H277.862C277.788 20.1 277.582 19.722 277.246 19.442C276.91 19.1527 276.5 19.008 276.014 19.008ZM283.46 18.462C283.722 18.098 284.072 17.8227 284.51 17.636C284.958 17.4493 285.472 17.356 286.05 17.356V19.372C285.808 19.3533 285.644 19.344 285.56 19.344C284.935 19.344 284.445 19.5213 284.09 19.876C283.736 20.2213 283.558 20.744 283.558 21.444V25H281.374V17.468H283.46V18.462Z" fill="#4F1F5A"/>
<path d="M200 22H194V28H192V22H186V20H192V14H194V20H200V22Z" fill="#4F1F5A"/>
<g filter="url(#filter0_d_0_1)">
<rect x="5" y="4" width="140" height="33" rx="9" fill="white" stroke="#4F1F5A" stroke-width="2"/>
<path d="M62.0045 17.356C62.9378 17.356 63.6891 17.636 64.2585 18.196C64.8371 18.756 65.1265 19.5867 65.1265 20.688V25H62.9425V21.024C62.9425 20.4267 62.8118 19.9833 62.5505 19.694C62.2891 19.3953 61.9111 19.246 61.4165 19.246C60.8658 19.246 60.4271 19.4187 60.1005 19.764C59.7738 20.1 59.6105 20.604 59.6105 21.276V25H57.4265V17.468H59.5125V18.35C59.8018 18.0327 60.1611 17.79 60.5905 17.622C61.0198 17.4447 61.4911 17.356 62.0045 17.356ZM74.5662 21.262C74.5662 21.29 74.5522 21.486 74.5242 21.85H68.8262C68.9289 22.3167 69.1715 22.6853 69.5542 22.956C69.9369 23.2267 70.4129 23.362 70.9822 23.362C71.3742 23.362 71.7195 23.306 72.0182 23.194C72.3262 23.0727 72.6109 22.886 72.8722 22.634L74.0342 23.894C73.3249 24.706 72.2889 25.112 70.9262 25.112C70.0769 25.112 69.3255 24.9487 68.6722 24.622C68.0189 24.286 67.5149 23.824 67.1602 23.236C66.8055 22.648 66.6282 21.9807 66.6282 21.234C66.6282 20.4967 66.8009 19.834 67.1462 19.246C67.5009 18.6487 67.9815 18.1867 68.5882 17.86C69.2042 17.524 69.8902 17.356 70.6462 17.356C71.3835 17.356 72.0509 17.5147 72.6482 17.832C73.2455 18.1493 73.7122 18.6067 74.0482 19.204C74.3935 19.792 74.5662 20.478 74.5662 21.262ZM70.6602 19.008C70.1655 19.008 69.7502 19.148 69.4142 19.428C69.0782 19.708 68.8729 20.0907 68.7982 20.576H72.5082C72.4335 20.1 72.2282 19.722 71.8922 19.442C71.5562 19.1527 71.1455 19.008 70.6602 19.008ZM87.9795 17.468L85.2495 25H83.1495L81.4555 20.324L79.7055 25H77.6055L74.8895 17.468H76.9475L78.7255 22.564L80.5735 17.468H82.4215L84.2135 22.564L86.0475 17.468H87.9795ZM95.3537 17.636H97.2857V19.316H95.4097V25H93.2257V19.316H92.0637V17.636H93.2257V17.3C93.2257 16.4413 93.4777 15.76 93.9817 15.256C94.495 14.752 95.2137 14.5 96.1377 14.5C96.4644 14.5 96.7723 14.5373 97.0617 14.612C97.3603 14.6773 97.6077 14.7753 97.8037 14.906L97.2297 16.488C96.9777 16.3107 96.6837 16.222 96.3477 16.222C95.685 16.222 95.3537 16.586 95.3537 17.314V17.636ZM99.4977 17.468H101.682V25H99.4977V17.468ZM100.59 16.418C100.188 16.418 99.8617 16.3013 99.6097 16.068C99.3577 15.8347 99.2317 15.5453 99.2317 15.2C99.2317 14.8547 99.3577 14.5653 99.6097 14.332C99.8617 14.0987 100.188 13.982 100.59 13.982C100.991 13.982 101.318 14.094 101.57 14.318C101.822 14.542 101.948 14.822 101.948 15.158C101.948 15.522 101.822 15.8253 101.57 16.068C101.318 16.3013 100.991 16.418 100.59 16.418ZM103.706 14.612H105.89V25H103.706V14.612ZM115.295 21.262C115.295 21.29 115.281 21.486 115.253 21.85H109.555C109.657 22.3167 109.9 22.6853 110.283 22.956C110.665 23.2267 111.141 23.362 111.711 23.362C112.103 23.362 112.448 23.306 112.747 23.194C113.055 23.0727 113.339 22.886 113.601 22.634L114.763 23.894C114.053 24.706 113.017 25.112 111.655 25.112C110.805 25.112 110.054 24.9487 109.401 24.622C108.747 24.286 108.243 23.824 107.889 23.236C107.534 22.648 107.357 21.9807 107.357 21.234C107.357 20.4967 107.529 19.834 107.875 19.246C108.229 18.6487 108.71 18.1867 109.317 17.86C109.933 17.524 110.619 17.356 111.375 17.356C112.112 17.356 112.779 17.5147 113.377 17.832C113.974 18.1493 114.441 18.6067 114.777 19.204C115.122 19.792 115.295 20.478 115.295 21.262ZM111.389 19.008C110.894 19.008 110.479 19.148 110.143 19.428C109.807 19.708 109.601 20.0907 109.527 20.576H113.237C113.162 20.1 112.957 19.722 112.621 19.442C112.285 19.1527 111.874 19.008 111.389 19.008Z" fill="#4F1F5A"/>
<path d="M39 10H31C29.9 10 29.01 10.9 29.01 12L29 28C29 29.1 29.89 30 30.99 30H43C44.1 30 45 29.1 45 28V16L39 10ZM43 28H31V12H38V17H43V28ZM33 23.01L34.41 24.42L36 22.84V27H38V22.84L39.59 24.43L41 23.01L37.01 19L33 23.01Z" fill="#4F1F5A"/>
</g>
<defs>
<filter id="filter0_d_0_1" x="0" y="0" width="150" height="43" filterUnits="userSpaceOnUse" color-interpolation-filters="sRGB">
<feFlood flood-opacity="0" result="BackgroundImageFix"/>
<feColorMatrix in="SourceAlpha" type="matrix" values="0 0 0 0 0 0 0 0 0 0 0 0 0 0 0 0 0 0 127 0" result="hardAlpha"/>
<feOffset dy="1"/>
<feGaussianBlur stdDeviation="2"/>
<feComposite in2="hardAlpha" operator="out"/>
<feColorMatrix type="matrix" values="0 0 0 0 0 0 0 0 0 0 0 0 0 0 0 0 0 0 0.1 0"/>
<feBlend mode="normal" in2="BackgroundImageFix" result="effect1_dropShadow_0_1"/>
<feBlend mode="normal" in="SourceGraphic" in2="effect1_dropShadow_0_1" result="shape"/>
</filter>
</defs>
</svg>
